# xmcd
#
# Track frame offsets: 
#        150
#        13040
#        28745
#        39037
#        50312
#        68177
#        81542
#        89000
#        105997
#        119520
#        138552
#        148952
#        165560
#        178070
#        190912
#        204862
#        218877
#        231882
#        241760
#        253820
#        264285
#
# Disc length: 3688 seconds
#
# Revision: 15
# Processed by: cddbd v1.5.2PL0 Copyright (c) Steve Scherf et al.
# Submitted via: ExactAudioCopy v0.95a4
#
DISCID=2b0e6615
DTITLE=Various Artist - Wanted! The Outlaws
DYEAR=1976
DGENRE=Country
TTITLE0=Waylon Jennings - My Heroes Have Always Been Cowboys
TTITLE1=Waylon Jennings - Honky Tonk Heroes (Like Me)
TTITLE2=Jessi Colter - I'm Looking For Blue Eyes
TTITLE3=Jessi Colter - You Mean To Say
TTITLE4=Waylon Jennings and Jessi Colter - Suspicious Minds
TTITLE5=Waylon Jennings and Willie Nelson - A Good Hearted Woman
TTITLE6=Waylon Jennings and Willie Nelson - Heaven And Hell
TTITLE7=Willie Nelson - Me And Paul
TTITLE8=Willie Nelson - Yesterday's Wine
TTITLE9=Tompall Glaser - T For Texas
TTITLE10=Tompall Glaser - Put Another Log On The Fire
TTITLE11=Waylon Jennings - Slow Movin' Outlaws
TTITLE12=Waylon Jennings - (I'm A) Ramblin' Man
TTITLE13=Jessi Colter - If She's Where You Like Livin'
TTITLE14=Jessi Colter - It's Not Easy
TTITLE15=Jessi Colter - Why You Been Gone So Long
TTITLE16=Waylon Jennings and Jessi Colter - Under Your Spell Again
TTITLE17=Waylon Jennings and Jessi Colter - I Ain't The One
TTITLE18=Willie Nelson - You Left A Long, Long Time Ago
TTITLE19=Willie Nelson - Healing Hands Of Time
TTITLE20=Waylon Jennings and Willie Nelson - Nowhere Road (1996)
EXTD=YEAR: 1976
EXTT0=
EXTT1=
EXTT2=
EXTT3=
EXTT4=
EXTT5=
EXTT6=
EXTT7=
EXTT8=
EXTT9=
EXTT10=
EXTT11=
EXTT12=
EXTT13=
EXTT14=
EXTT15=
EXTT16=
EXTT17=
EXTT18=
EXTT19=
EXTT20=
PLAYORDER=
